<svg width="40" height="40" viewBox="0 0 40 40" fill="none" xmlns="http://www.w3.org/2000/svg">
<rect width="40" height="40" rx="5" fill="#163920"/>
<path fill-rule="evenodd" clip-rule="evenodd" d="M12.1055 22.5804L14.211 20.4749L12.1055 18.3693L10 20.4749L12.1055 22.5804Z" fill="white"/>
<path fill-rule="evenodd" clip-rule="evenodd" d="M26.8442 22.5804L28.9497 20.4749L26.8442 18.3693L24.7386 20.4749L26.8442 22.5804Z" fill="white"/>
<path fill-rule="evenodd" clip-rule="evenodd" d="M19.4748 22.5804L21.5804 20.4749L19.4748 18.3693L17.3693 20.4749L19.4748 22.5804Z" fill="white"/>
<path fill-rule="evenodd" clip-rule="evenodd" d="M20.5276 12.0528L19.4748 11L13.6846 16.7902L15.7902 18.8957L19.4748 15.2111L23.1595 18.8957L25.265 16.7902L20.5276 12.0528Z" fill="white"/>
<path fill-rule="evenodd" clip-rule="evenodd" d="M18.4221 28.8969L19.4748 29.9497L25.265 24.1595L23.1595 22.054L19.4748 25.7386L15.7902 22.054L13.6847 24.1595L18.4221 28.8969Z" fill="white"/>
</svg>
