<svg width="21" height="21" viewBox="0 0 21 21" fill="none" xmlns="http://www.w3.org/2000/svg">
<circle cx="10.5" cy="10.5" r="10.5" fill="#29CB97"/>
<path fill-rule="evenodd" clip-rule="evenodd" d="M5.5254 9.61017C5.60259 9.50637 5.72433 9.44519 5.85369 9.44519H15.1543C15.2837 9.44519 15.4054 9.50637 15.4826 9.61017C15.5598 9.71398 15.5834 9.84817 15.5461 9.97206L14.0924 14.8085C14.0404 14.9815 13.8812 15.0999 13.7006 15.0999H7.30738C7.1268 15.0999 6.96757 14.9815 6.91559 14.8085L5.4619 9.97206C5.42466 9.84817 5.44821 9.71398 5.5254 9.61017ZM6.40384 10.2634L7.61161 14.2817H13.3964L14.6042 10.2634H6.40384Z" fill="white"/>
<path fill-rule="evenodd" clip-rule="evenodd" d="M8.94978 4.08058C9.13123 4.21522 9.16919 4.47145 9.03456 4.6529L6.18226 8.49715C6.04763 8.6786 5.79139 8.71656 5.60994 8.58192C5.42849 8.44729 5.39053 8.19106 5.52516 8.0096L8.37746 4.16536C8.51209 3.98391 8.76833 3.94595 8.94978 4.08058Z" fill="white"/>
<path fill-rule="evenodd" clip-rule="evenodd" d="M12.0585 4.08057C12.24 3.94595 12.4962 3.98392 12.6308 4.16538L15.4828 8.00962C15.6175 8.19108 15.5795 8.44731 15.398 8.58194C15.2166 8.71656 14.9603 8.67859 14.8257 8.49713L11.9737 4.65289C11.8391 4.47143 11.877 4.2152 12.0585 4.08057Z" fill="white"/>
<path fill-rule="evenodd" clip-rule="evenodd" d="M5 8.25347C5 8.02752 5.18316 7.84436 5.40911 7.84436H15.5991C15.8251 7.84436 16.0083 8.02752 16.0083 8.25347V9.85444C16.0083 10.0804 15.8251 10.2635 15.5991 10.2635H5.40911C5.18316 10.2635 5 10.0804 5 9.85444V8.25347ZM5.81821 8.66257V9.44533H15.19V8.66257H5.81821Z" fill="white"/>
<path fill-rule="evenodd" clip-rule="evenodd" d="M9.20928 5.59256C9.36907 5.43282 9.6281 5.43285 9.78785 5.59264L10.5041 6.3091L11.2204 5.59264C11.3801 5.43285 11.6391 5.43282 11.7989 5.59256C11.9587 5.75231 11.9588 6.01134 11.799 6.17113L10.7934 7.17699C10.7167 7.25373 10.6126 7.29685 10.5041 7.29685C10.3956 7.29685 10.2915 7.25373 10.2148 7.17699L9.2092 6.17113C9.04946 6.01134 9.04949 5.75231 9.20928 5.59256Z" fill="white"/>
<path fill-rule="evenodd" clip-rule="evenodd" d="M10.5041 4C10.7301 4 10.9132 4.18316 10.9132 4.40911V6.75111C10.9132 6.97705 10.7301 7.16022 10.5041 7.16022C10.2782 7.16022 10.095 6.97705 10.095 6.75111V4.40911C10.095 4.18316 10.2782 4 10.5041 4Z" fill="white"/>
</svg>
