<svg width="96.00000000000001" height="96.00000000000001" xmlns="http://www.w3.org/2000/svg">
 <title/>

 <g>
  <title>background</title>
  <rect fill="none" id="canvas_background" height="402" width="582" y="-1" x="-1"/>
 </g>
 <g>
  <title>Layer 1</title>
  <path transform="rotate(180 48.59626007080078,48) " fill="#29cb97" id="svg_1" d="m48.596262,0a48,48 0 1 0 48,48a48,48 0 0 0 -48,-48zm-10.39,57.13l0,0.06a17.9,17.9 0 0 0 -9.29,-14.81a3.69,3.69 0 0 1 1.73,-7a3.79,3.79 0 0 1 1.73,0.47a26.52,26.52 0 0 1 8.86,7.62c0,0.69 0.11,1.37 0.11,2a17.76,17.76 0 0 1 -2.58,9.27a1.75,1.75 0 0 0 -0.17,0.3a3.55,3.55 0 0 0 -0.39,2.09zm11.39,-9.74a25.22,25.22 0 0 1 -3.69,11.61a3.69,3.69 0 0 1 -3.31,1.86a3.34,3.34 0 0 1 -1.15,-0.16a4.09,4.09 0 0 1 -0.88,-0.38a4,4 0 0 1 -1.84,-3a3.77,3.77 0 0 1 0.38,-2.08a1.41,1.41 0 0 1 0.19,-0.24a17.76,17.76 0 0 0 2.6,-9.24c0,-0.71 -0.11,-1.4 -0.14,-2.08a17.41,17.41 0 0 0 -2.47,-7.18a4,4 0 0 1 -0.33,-3.29a5.6,5.6 0 0 1 0.88,-1.4a4.15,4.15 0 0 1 1.4,-0.93a3.51,3.51 0 0 1 1.4,-0.28a4.27,4.27 0 0 1 2.14,0.66a4.59,4.59 0 0 1 0.9,0.88c0.11,0.14 0.19,0.25 0.28,0.33a25.84,25.84 0 0 1 3.64,13.28c0,0.55 0,1.1 0,1.64zm4,12.23a4,4 0 0 0 -0.3,1.37l0,-1.31a26.25,26.25 0 0 0 -3,-12.28c0,-0.55 0,-1.1 0,-1.67a25.82,25.82 0 0 0 -3.67,-13.27c-0.08,-0.11 -0.16,-0.25 -0.22,-0.33a3.9,3.9 0 0 0 -0.88,-0.8l-0.05,-0.06a34.14,34.14 0 0 1 11.12,10.83a33.82,33.82 0 0 1 0.19,3.65a31.66,31.66 0 0 1 -3,13.68a0.32,0.32 0 0 0 -0.19,0.19zm10.91,-4.91c-0.19,0.77 -0.36,1.53 -0.58,2.3a29.24,29.24 0 0 1 -2.33,6.09a4,4 0 0 1 -7.54,-1.1a3.65,3.65 0 0 1 -0.14,-0.93a3.81,3.81 0 0 1 0.41,-1.67a31.31,31.31 0 0 0 3.07,-13.65a31.59,31.59 0 0 0 -3.1,-13.75a4.05,4.05 0 0 1 1.89,-5.43a4.32,4.32 0 0 1 1.78,-0.38a4.06,4.06 0 0 1 3.67,2.33a42.11,42.11 0 0 1 2.88,8.25a45.1,45.1 0 0 1 1,9a40.81,40.81 0 0 1 -0.99,8.95l-0.02,-0.01z"/>
 </g>
</svg>