<svg width="21" height="21" viewBox="0 0 21 21" fill="none" xmlns="http://www.w3.org/2000/svg">
<circle cx="10.5" cy="10.5" r="10.5" fill="#29CB97"/>
<path fill-rule="evenodd" clip-rule="evenodd" d="M5.46252 10.6048C5.53969 10.5009 5.66139 10.4397 5.79071 10.4397H15.0888C15.2182 10.4397 15.3399 10.5009 15.417 10.6048C15.4942 10.7087 15.5178 10.8431 15.4805 10.9671L14.0272 15.8083C13.9753 15.9814 13.8161 16.0999 13.6355 16.0999H7.24402C7.06348 16.0999 6.9043 15.9814 6.85233 15.8083L5.39903 10.9671C5.3618 10.8431 5.38534 10.7087 5.46252 10.6048ZM6.34072 11.2587L7.54816 15.2809H13.3314L14.5388 11.2587H6.34072Z" fill="white"/>
<path fill-rule="evenodd" clip-rule="evenodd" d="M8.83183 4.98119C9.01045 5.1168 9.04782 5.37492 8.9153 5.55771L6.10787 9.43021C5.97535 9.613 5.72313 9.65125 5.5445 9.51563C5.36588 9.38002 5.32851 9.1219 5.46103 8.93911L8.26846 5.06662C8.40098 4.88382 8.65321 4.84558 8.83183 4.98119Z" fill="white"/>
<path fill-rule="evenodd" clip-rule="evenodd" d="M11.9327 4.9812C12.1173 4.84558 12.3779 4.88382 12.5148 5.0666L15.4159 8.9391C15.5528 9.12188 15.5142 9.38 15.3297 9.51562C15.1451 9.65124 14.8845 9.61301 14.7476 9.43022L11.8465 5.55773C11.7096 5.37494 11.7482 5.11682 11.9327 4.9812Z" fill="white"/>
<path fill-rule="evenodd" clip-rule="evenodd" d="M4.90002 9.2611C4.90002 9.04739 5.08437 8.87415 5.31178 8.87415H15.5678C15.7952 8.87415 15.9796 9.04739 15.9796 9.2611V10.7754C15.9796 10.9891 15.7952 11.1623 15.5678 11.1623H5.31178C5.08437 11.1623 4.90002 10.9891 4.90002 10.7754V9.2611ZM5.72354 9.64805V10.3884H15.1561V9.64805H5.72354Z" fill="white"/>
<path fill-rule="evenodd" clip-rule="evenodd" d="M10.4398 4.90002C10.5506 4.90002 10.6569 4.94556 10.7353 5.02662L11.7625 6.08904C11.9258 6.25784 11.9258 6.53151 11.7625 6.70031C11.5993 6.86911 11.3347 6.86911 11.1715 6.70031L10.4398 5.94352L9.70806 6.70031C9.54485 6.86911 9.28024 6.86911 9.11703 6.70031C8.95383 6.53151 8.95383 6.25784 9.11703 6.08904L10.1443 5.02662C10.2227 4.94556 10.329 4.90002 10.4398 4.90002Z" fill="white"/>
<path fill-rule="evenodd" clip-rule="evenodd" d="M10.4398 5.14087C10.7058 5.14087 10.9215 5.32235 10.9215 5.54622V7.8667C10.9215 8.09057 10.7058 8.27205 10.4398 8.27205C10.1737 8.27205 9.95807 8.09057 9.95807 7.8667V5.54622C9.95807 5.32235 10.1737 5.14087 10.4398 5.14087Z" fill="white"/>
</svg>
