<svg width="21" height="21" viewBox="0 0 21 21" fill="none" xmlns="http://www.w3.org/2000/svg">
<circle cx="10.5" cy="10.5" r="10.5" fill="#29CB97"/>
<path fill-rule="evenodd" clip-rule="evenodd" d="M8.56 5.8C8.05078 5.8 7.56242 6.05286 7.20235 6.50294C6.84229 6.95303 6.64 7.56348 6.64 8.2V9.6C6.64 9.82091 6.49673 10 6.32 10C6.14327 10 6 9.82091 6 9.6V8.2C6 7.35131 6.26971 6.53737 6.74981 5.93726C7.2299 5.33714 7.88105 5 8.56 5H9.68C9.85673 5 10 5.17909 10 5.4C10 5.62091 9.85673 5.8 9.68 5.8H8.56Z" fill="white"/>
<path fill-rule="evenodd" clip-rule="evenodd" d="M8.11716 4.10983C8.27337 3.96339 8.52663 3.96339 8.68284 4.10983L9.88284 5.23483C10.0391 5.38128 10.0391 5.61872 9.88284 5.76517L8.68284 6.89016C8.52663 7.03661 8.27337 7.03661 8.11716 6.89016C7.96095 6.74372 7.96095 6.50628 8.11716 6.35984L9.03431 5.5L8.11716 4.64017C7.96095 4.49372 7.96095 4.25628 8.11716 4.10983Z" fill="white"/>
<path fill-rule="evenodd" clip-rule="evenodd" d="M15.68 11C15.8567 11 16 11.1791 16 11.4V12.8C16 13.6487 15.7303 14.4626 15.2502 15.0627C14.7701 15.6629 14.119 16 13.44 16H12.32C12.1433 16 12 15.8209 12 15.6C12 15.3791 12.1433 15.2 12.32 15.2H13.44C13.9492 15.2 14.4376 14.9471 14.7976 14.4971C15.1577 14.047 15.36 13.4365 15.36 12.8V11.4C15.36 11.1791 15.5033 11 15.68 11Z" fill="white"/>
<path fill-rule="evenodd" clip-rule="evenodd" d="M12.9414 14.1098C13.0195 14.2563 13.0195 14.4937 12.9414 14.6402L12.4828 15.5L12.9414 16.3598C13.0195 16.5063 13.0195 16.7437 12.9414 16.8902C12.8633 17.0366 12.7367 17.0366 12.6586 16.8902L12.0586 15.7652C11.9805 15.6187 11.9805 15.3813 12.0586 15.2348L12.6586 14.1098C12.7367 13.9634 12.8633 13.9634 12.9414 14.1098Z" fill="white"/>
<path fill-rule="evenodd" clip-rule="evenodd" d="M13.1706 5.72827C12.6629 5.60125 12.1302 5.61455 11.6295 5.76675C11.1288 5.91895 10.6788 6.20433 10.3276 6.59241C9.9765 6.98048 9.7374 7.45667 9.63586 7.97008C9.60148 8.14397 9.43264 8.25706 9.25875 8.22267C9.08486 8.18828 8.97177 8.01944 9.00616 7.84556C9.13025 7.21805 9.4225 6.63605 9.85167 6.16173C10.2808 5.68742 10.8308 5.33862 11.4428 5.15259C12.0548 4.96657 12.7059 4.95031 13.3264 5.10556C13.947 5.26082 14.5136 5.58174 14.966 6.03405C15.4183 6.48635 15.7392 7.05305 15.8944 7.67358C16.0497 8.29411 16.0334 8.94516 15.8474 9.55717C15.6614 10.1692 15.3126 10.7192 14.8383 11.1483C14.364 11.5775 13.782 11.8697 13.1544 11.9938C12.9806 12.0282 12.8117 11.9151 12.7773 11.7413C12.7429 11.5674 12.856 11.3985 13.0299 11.3641C13.5433 11.2626 14.0195 11.0235 14.4076 10.6724C14.7957 10.3212 15.0811 9.87124 15.2333 9.3705C15.3855 8.86976 15.3988 8.33708 15.2717 7.82938C15.1447 7.32167 14.8821 6.85801 14.5121 6.48794C14.142 6.11787 13.6783 5.8553 13.1706 5.72827Z" fill="white"/>
<path fill-rule="evenodd" clip-rule="evenodd" d="M8.5 9.63636C6.91846 9.63636 5.63636 10.9185 5.63636 12.5C5.63636 14.0815 6.91846 15.3636 8.5 15.3636C10.0815 15.3636 11.3636 14.0815 11.3636 12.5C11.3636 10.9185 10.0815 9.63636 8.5 9.63636ZM5 12.5C5 10.567 6.567 9 8.5 9C10.433 9 12 10.567 12 12.5C12 14.433 10.433 16 8.5 16C6.567 16 5 14.433 5 12.5Z" fill="white"/>
</svg>
