<svg width="40" height="40" viewBox="0 0 40 40" fill="none" xmlns="http://www.w3.org/2000/svg">
<rect width="40" height="40" rx="5" fill="#29CB97"/>
<g clip-path="url(#clip0)">
<path d="M26.1375 19.9529C25.4937 19.468 24.5766 19.274 24.5766 19.274C24.5766 19.274 25.3527 18.8241 25.6698 18.3746C25.9873 17.9249 26.146 17.2282 26.1725 16.8667C26.1989 16.505 26.2607 14.9885 25.079 14.1157C24.165 13.4403 23.1175 13.1722 21.7109 13.085V10.0245H19.824V13.0488C19.4029 13.0488 18.9109 13.0488 18.3867 13.0488V10.0245H16.4999V13.0488C14.5737 13.0488 12.7877 13.0488 12.7877 13.0488V15.0084C12.7877 15.0084 13.5813 15.0084 13.8788 15.0084C14.1763 15.0084 14.7054 15.0414 14.9302 15.293C15.1551 15.5442 15.1948 15.6766 15.1948 16.1657C15.1948 16.655 15.1948 23.7886 15.1948 23.9738C15.1948 24.1589 15.1596 24.3881 15.0007 24.5381C14.8422 24.6881 14.6835 24.7231 14.3042 24.7231C13.925 24.7231 13.1757 24.7231 13.1757 24.7231L12.7877 26.9895C12.7877 26.9895 14.6325 26.9895 16.4999 26.9895V30.0052H18.3868V26.9895C18.9666 26.9895 19.4714 26.9895 19.8241 26.9895V30.0052H21.711V26.9397C22.1988 26.9112 22.6536 26.8743 22.9189 26.8395C23.4569 26.7692 24.6736 26.6281 25.8113 25.8344C26.9486 25.0407 27.2041 23.7973 27.2306 22.5454C27.2574 21.2933 26.7807 20.4378 26.1375 19.9529ZM18.3867 15.1827C18.3867 15.1827 18.9862 15.1299 19.577 15.1385C20.168 15.1473 20.688 15.165 21.4642 15.4031C22.24 15.6413 22.6982 16.2233 22.7162 16.9111C22.7337 17.5989 22.4336 18.0573 21.9048 18.3483C21.3758 18.6392 20.6443 18.798 19.9563 18.8242C19.2686 18.8507 18.3867 18.8242 18.3867 18.8242V15.1827ZM22.6102 24.2029C22.1782 24.4411 21.314 24.6527 20.4765 24.7143C19.6388 24.7761 18.3867 24.7496 18.3867 24.7496V20.7022C18.3867 20.7022 19.5859 20.6407 20.5207 20.7022C21.4553 20.7642 22.24 21.0021 22.5925 21.1787C22.9452 21.3549 23.5626 21.7428 23.5626 22.6688C23.5626 23.5945 23.042 23.9649 22.6102 24.2029Z" fill="white"/>
</g>
<defs>
<clipPath id="clip0">
<rect x="10" y="10" width="20" height="20" fill="white"/>
</clipPath>
</defs>
</svg>
