<svg width="24" fill="#ffff" height="20" viewBox="0 0 24 20" xmlns="http://www.w3.org/2000/svg">
<path fill-rule="evenodd" clip-rule="evenodd" d="M18.3262 17.6869H5.184L3.68571 11.1869H19.8245L18.3262 17.6869ZM1.95918 9.18692H21.551V6.68692H1.95918V9.18692ZM22.5306 4.68692H20.8878L14.7771 0.186924C14.3383 -0.133076 13.7256 -0.0330759 13.4096 0.416924C13.0932 0.861924 13.1922 1.48692 13.631 1.81192L17.5386 4.68692H5.97159L9.87918 1.81192C10.318 1.48692 10.417 0.861924 10.1006 0.416924C9.78465 -0.0330759 9.17241 -0.133076 8.73306 0.186924L2.62237 4.68692H0.979592C0.438857 4.68692 0 5.13692 0 5.68692V10.1869C0 10.7419 0.438857 11.1869 0.979592 11.1869H1.67314L3.45453 18.9169C3.55886 19.3669 3.95363 19.6869 4.40816 19.6869H19.102C19.5566 19.6869 19.9513 19.3669 20.0557 18.9169L21.8371 11.1869H22.5306C23.0713 11.1869 23.5102 10.7419 23.5102 10.1869V5.68692C23.5102 5.13692 23.0713 4.68692 22.5306 4.68692Z" fill="#fff"/>
<path fill-rule="evenodd" clip-rule="evenodd" d="M10.2857 16.4369C10.6918 16.4369 11.0204 16.1019 11.0204 15.6869V13.1869C11.0204 12.7719 10.6918 12.4369 10.2857 12.4369C9.87968 12.4369 9.55103 12.7719 9.55103 13.1869V15.6869C9.55103 16.1019 9.87968 16.4369 10.2857 16.4369Z" fill="#fff"/>
<path fill-rule="evenodd" clip-rule="evenodd" d="M13.2245 16.4369C13.6305 16.4369 13.9592 16.1019 13.9592 15.6869V13.1869C13.9592 12.7719 13.6305 12.4369 13.2245 12.4369C12.8184 12.4369 12.4898 12.7719 12.4898 13.1869V15.6869C12.4898 16.1019 12.8184 16.4369 13.2245 16.4369Z" fill="#fff"/>
<path fill-rule="evenodd" clip-rule="evenodd" d="M16.1633 16.4369C16.5693 16.4369 16.898 16.1019 16.898 15.6869V13.1869C16.898 12.7719 16.5693 12.4369 16.1633 12.4369C15.7572 12.4369 15.4286 12.7719 15.4286 13.1869V15.6869C15.4286 16.1019 15.7572 16.4369 16.1633 16.4369Z" fill="#fff"/>
<path fill-rule="evenodd" clip-rule="evenodd" d="M7.34694 16.4369C7.75298 16.4369 8.08163 16.1019 8.08163 15.6869V13.1869C8.08163 12.7719 7.75298 12.4369 7.34694 12.4369C6.9409 12.4369 6.61224 12.7719 6.61224 13.1869V15.6869C6.61224 16.1019 6.9409 16.4369 7.34694 16.4369Z" fill="#fff"/>
</svg>
